{"asset":{"version":"2.0","generator":"Blockbench 4.10.1 glTF exporter"},"scenes":[{"nodes":[21],"name":"blockbench_export"}],"scene":0,"nodes":[{"translation":[0,-0.1875,-0.3125],"name":"cube","mesh":0},{"translation":[0,-0.3125,-0.25],"name":"cube","mesh":1},{"translation":[0,0.5625,-0.125],"name":"cube","mesh":2},{"translation":[0,-0.125,-0.0625],"name":"cube","mesh":3},{"rotation":[0,0,0.5372996083468239,0.8433914458128857],"translation":[-0.25,0.1875,-0.0625],"name":"cube","mesh":4},{"rotation":[0,0,-0.5372996083468239,0.8433914458128857],"translation":[0.25,0.1875,-0.0625],"name":"cube","mesh":5},{"rotation":[0,0,0.573576436351046,0.8191520442889918],"translation":[-0.4375,-0.25,-0.3125],"name":"cube","mesh":6},{"rotation":[0,0,-0.573576436351046,0.8191520442889918],"translation":[0.4375,-0.25,-0.3125],"name":"cube","mesh":7},{"translation":[0,-0.125,-0.0625],"name":"cube","mesh":8},{"translation":[0,-0.25,0],"name":"jaw","children":[8]},{"translation":[0,0.0625,-0.625],"name":"head","children":[3,4,5,6,7,9]},{"translation":[0,0.0625,0.1875],"name":"cube","mesh":9},{"translation":[0,-0.25,0.4375],"name":"cube","mesh":10},{"translation":[0,0.125,0.5625],"name":"tall","children":[11,12]},{"translation":[0.0625,0,0],"name":"cube","mesh":11},{"translation":[0.0625,0,0],"name":"cube","mesh":12},{"translation":[-0.375,-0.25,-0.375],"name":"left_fine","children":[14,15]},{"translation":[-0.0625,0,0],"name":"cube","mesh":13},{"translation":[0.25,-0.0625,0],"name":"cube","mesh":14},{"translation":[0.375,-0.25,-0.375],"name":"right_fine","children":[17,18]},{"translation":[0,0.5,0.125],"name":"body","children":[0,1,2,10,13,16,19]},{"children":[20]}],"bufferViews":[{"buffer":0,"byteOffset":0,"byteLength":288,"target":34962,"byteStride":12},{"buffer":0,"byteOffset":288,"byteLength":288,"target":34962,"byteStride":12},{"buffer":0,"byteOffset":576,"byteLength":192,"target":34962,"byteStride":8},{"buffer":0,"byteOffset":768,"byteLength":72,"target":34963},{"buffer":0,"byteOffset":840,"byteLength":288,"target":34962,"byteStride":12},{"buffer":0,"byteOffset":1128,"byteLength":288,"target":34962,"byteStride":12},{"buffer":0,"byteOffset":1416,"byteLength":192,"target":34962,"byteStride":8},{"buffer":0,"byteOffset":1608,"byteLength":72,"target":34963},{"buffer":0,"byteOffset":1680,"byteLength":288,"target":34962,"byteStride":12},{"buffer":0,"byteOffset":1968,"byteLength":288,"target":34962,"byteStride":12},{"buffer":0,"byteOffset":2256,"byteLength":192,"target":34962,"byteStride":8},{"buffer":0,"byteOffset":2448,"byteLength":72,"target":34963},{"buffer":0,"byteOffset":2520,"byteLength":288,"target":34962,"byteStride":12},{"buffer":0,"byteOffset":2808,"byteLength":288,"target":34962,"byteStride":12},{"buffer":0,"byteOffset":3096,"byteLength":192,"target":34962,"byteStride":8},{"buffer":0,"byteOffset":3288,"byteLength":72,"target":34963},{"buffer":0,"byteOffset":3360,"byteLength":288,"target":34962,"byteStride":12},{"buffer":0,"byteOffset":3648,"byteLength":288,"target":34962,"byteStride":12},{"buffer":0,"byteOffset":3936,"byteLength":192,"target":34962,"byteStride":8},{"buffer":0,"byteOffset":4128,"byteLength":72,"target":34963},{"buffer":0,"byteOffset":4200,"byteLength":288,"target":34962,"byteStride":12},{"buffer":0,"byteOffset":4488,"byteLength":288,"target":34962,"byteStride":12},{"buffer":0,"byteOffset":4776,"byteLength":192,"target":34962,"byteStride":8},{"buffer":0,"byteOffset":4968,"byteLength":72,"target":34963},{"buffer":0,"byteOffset":5040,"byteLength":288,"target":34962,"byteStride":12},{"buffer":0,"byteOffset":5328,"byteLength":288,"target":34962,"byteStride":12},{"buffer":0,"byteOffset":5616,"byteLength":192,"target":34962,"byteStride":8},{"buffer":0,"byteOffset":5808,"byteLength":72,"target":34963},{"buffer":0,"byteOffset":5880,"byteLength":288,"target":34962,"byteStride":12},{"buffer":0,"byteOffset":6168,"byteLength":288,"target":34962,"byteStride":12},{"buffer":0,"byteOffset":6456,"byteLength":192,"target":34962,"byteStride":8},{"buffer":0,"byteOffset":6648,"byteLength":72,"target":34963},{"buffer":0,"byteOffset":6720,"byteLength":288,"target":34962,"byteStride":12},{"buffer":0,"byteOffset":7008,"byteLength":288,"target":34962,"byteStride":12},{"buffer":0,"byteOffset":7296,"byteLength":192,"target":34962,"byteStride":8},{"buffer":0,"byteOffset":7488,"byteLength":72,"target":34963},{"buffer":0,"byteOffset":7560,"byteLength":288,"target":34962,"byteStride":12},{"buffer":0,"byteOffset":7848,"byteLength":288,"target":34962,"byteStride":12},{"buffer":0,"byteOffset":8136,"byteLength":192,"target":34962,"byteStride":8},{"buffer":0,"byteOffset":8328,"byteLength":72,"target":34963},{"buffer":0,"byteOffset":8400,"byteLength":288,"target":34962,"byteStride":12},{"buffer":0,"byteOffset":8688,"byteLength":288,"target":34962,"byteStride":12},{"buffer":0,"byteOffset":8976,"byteLength":192,"target":34962,"byteStride":8},{"buffer":0,"byteOffset":9168,"byteLength":72,"target":34963},{"buffer":0,"byteOffset":9240,"byteLength":288,"target":34962,"byteStride":12},{"buffer":0,"byteOffset":9528,"byteLength":288,"target":34962,"byteStride":12},{"buffer":0,"byteOffset":9816,"byteLength":192,"target":34962,"byteStride":8},{"buffer":0,"byteOffset":10008,"byteLength":72,"target":34963},{"buffer":0,"byteOffset":10080,"byteLength":288,"target":34962,"byteStride":12},{"buffer":0,"byteOffset":10368,"byteLength":288,"target":34962,"byteStride":12},{"buffer":0,"byteOffset":10656,"byteLength":192,"target":34962,"byteStride":8},{"buffer":0,"byteOffset":10848,"byteLength":72,"target":34963},{"buffer":0,"byteOffset":10920,"byteLength":288,"target":34962,"byteStride":12},{"buffer":0,"byteOffset":11208,"byteLength":288,"target":34962,"byteStride":12},{"buffer":0,"byteOffset":11496,"byteLength":192,"target":34962,"byteStride":8},{"buffer":0,"byteOffset":11688,"byteLength":72,"target":34963},{"buffer":0,"byteOffset":11760,"byteLength":288,"target":34962,"byteStride":12},{"buffer":0,"byteOffset":12048,"byteLength":288,"target":34962,"byteStride":12},{"buffer":0,"byteOffset":12336,"byteLength":192,"target":34962,"byteStride":8},{"buffer":0,"byteOffset":12528,"byteLength":72,"target":34963},{"buffer":0,"byteOffset":12600,"byteLength":156},{"buffer":0,"byteOffset":12756,"byteLength":624},{"buffer":0,"byteOffset":13380,"byteLength":148},{"buffer":0,"byteOffset":13528,"byteLength":592},{"buffer":0,"byteOffset":14120,"byteLength":152},{"buffer":0,"byteOffset":14272,"byteLength":608},{"buffer":0,"byteOffset":14880,"byteLength":148},{"buffer":0,"byteOffset":15028,"byteLength":592},{"buffer":0,"byteOffset":15620,"byteLength":196},{"buffer":0,"byteOffset":15816,"byteLength":784},{"buffer":0,"byteOffset":16600,"byteLength":196},{"buffer":0,"byteOffset":16796,"byteLength":784},{"buffer":0,"byteOffset":17580,"byteLength":196},{"buffer":0,"byteOffset":17776,"byteLength":784},{"buffer":0,"byteOffset":18560,"byteLength":204},{"buffer":0,"byteOffset":18764,"byteLength":816},{"buffer":0,"byteOffset":19580,"byteLength":204},{"buffer":0,"byteOffset":19784,"byteLength":816},{"buffer":0,"byteOffset":20600,"byteLength":48},{"buffer":0,"byteOffset":20648,"byteLength":192},{"buffer":0,"byteOffset":20840,"byteLength":48},{"buffer":0,"byteOffset":20888,"byteLength":192}],"buffers":[{"byteLength":21080,"uri":"data:application/octet-stream;base64,"}],"accessors":[{"bufferView":0,"componentType":5126,"count":24,"max":[0.375,0.5625,0.875],"min":[-0.375,-0.125,-0.3125],"type":"VEC3"},{"bufferView":1,"componentType":5126,"count":24,"max":[1,1,1],"min":[-1,-1,-1],"type":"VEC3"},{"bufferView":2,"componentType":5126,"count":24,"max":[0.484375,0.4921875],"min":[0,0.1171875],"type":"VEC2"},{"bufferView":3,"componentType":5123,"count":36,"max":[23],"min":[0],"type":"SCALAR"},{"bufferView":4,"componentType":5126,"count":24,"max":[0.4375,0.5,0.9375],"min":[-0.4375,-0.125,0],"type":"VEC3"},{"bufferView":5,"componentType":5126,"count":24,"max":[1,1,1],"min":[-1,-1,-1],"type":"VEC3"},{"bufferView":6,"componentType":5126,"count":24,"max":[0.4921875,0.46875],"min":[0,0],"type":"VEC2"},{"bufferView":7,"componentType":5123,"count":36,"max":[23],"min":[0],"type":"SCALAR"},{"bufferView":8,"componentType":5126,"count":24,"max":[0.0000625000029685907,0.5,0.875],"min":[0,-0.1875,-0.4375],"type":"VEC3"},{"bufferView":9,"componentType":5126,"count":24,"max":[1,1,1],"min":[-1,-1,-1],"type":"VEC3"},{"bufferView":10,"componentType":5126,"count":24,"max":[0.328125,0.2421875],"min":[0,0],"type":"VEC2"},{"bufferView":11,"componentType":5123,"count":36,"max":[23],"min":[0],"type":"SCALAR"},{"bufferView":12,"componentType":5126,"count":24,"max":[0.4375,0.375,0.0625],"min":[-0.4375,-0.125,-0.4375],"type":"VEC3"},{"bufferView":13,"componentType":5126,"count":24,"max":[1,1,1],"min":[-1,-1,-1],"type":"VEC3"},{"bufferView":14,"componentType":5126,"count":24,"max":[0.5546875,0.5],"min":[0.109375,0],"type":"VEC2"},{"bufferView":15,"componentType":5123,"count":36,"max":[23],"min":[0],"type":"SCALAR"},{"bufferView":16,"componentType":5126,"count":24,"max":[0,0.3125,0],"min":[-0.5,0,-0.5],"type":"VEC3"},{"bufferView":17,"componentType":5126,"count":24,"max":[1,1,1],"min":[-1,-1,-1],"type":"VEC3"},{"bufferView":18,"componentType":5126,"count":24,"max":[0.5859375,0.5625],"min":[0.109375,0.078125],"type":"VEC2"},{"bufferView":19,"componentType":5123,"count":36,"max":[23],"min":[0],"type":"SCALAR"},{"bufferView":20,"componentType":5126,"count":24,"max":[0.5,0.3125,0],"min":[0,0,-0.5],"type":"VEC3"},{"bufferView":21,"componentType":5126,"count":24,"max":[1,1,1],"min":[-1,-1,-1],"type":"VEC3"},{"bufferView":22,"componentType":5126,"count":24,"max":[0.5859375,0.5625],"min":[0.109375,0.078125],"type":"VEC2"},{"bufferView":23,"componentType":5123,"count":36,"max":[23],"min":[0],"type":"SCALAR"},{"bufferView":24,"componentType":5126,"count":24,"max":[0.0625,0.0000625000029685907,0.5625],"min":[-0.5625,0,-0.125],"type":"VEC3"},{"bufferView":25,"componentType":5126,"count":24,"max":[1,1,1],"min":[-1,-1,-1],"type":"VEC3"},{"bufferView":26,"componentType":5126,"count":24,"max":[0.5625,0.5234375],"min":[0,0],"type":"VEC2"},{"bufferView":27,"componentType":5123,"count":36,"max":[23],"min":[0],"type":"SCALAR"},{"bufferView":28,"componentType":5126,"count":24,"max":[0.5625,0.0000625000029685907,0.5625],"min":[-0.0625,0,-0.125],"type":"VEC3"},{"bufferView":29,"componentType":5126,"count":24,"max":[1,1,1],"min":[-1,-1,-1],"type":"VEC3"},{"bufferView":30,"componentType":5126,"count":24,"max":[0.5625,0.5234375],"min":[0,0],"type":"VEC2"},{"bufferView":31,"componentType":5123,"count":36,"max":[23],"min":[0],"type":"SCALAR"},{"bufferView":32,"componentType":5126,"count":24,"max":[0.4375,0.125,0.0625],"min":[-0.4375,0,-0.4375],"type":"VEC3"},{"bufferView":33,"componentType":5126,"count":24,"max":[1,1,1],"min":[-1,-1,-1],"type":"VEC3"},{"bufferView":34,"componentType":5126,"count":24,"max":[0.6328125,0.53125],"min":[0,0.0625],"type":"VEC2"},{"bufferView":35,"componentType":5123,"count":36,"max":[23],"min":[0],"type":"SCALAR"},{"bufferView":36,"componentType":5126,"count":24,"max":[0.1875,0.125,0.25],"min":[-0.1875,-0.25,-0.1875],"type":"VEC3"},{"bufferView":37,"componentType":5126,"count":24,"max":[1,1,1],"min":[-1,-1,-1],"type":"VEC3"},{"bufferView":38,"componentType":5126,"count":24,"max":[0.484375,0.578125],"min":[0,0.390625],"type":"VEC2"},{"bufferView":39,"componentType":5123,"count":36,"max":[23],"min":[0],"type":"SCALAR"},{"bufferView":40,"componentType":5126,"count":24,"max":[0.0000625000029685907,0.9375,0.875],"min":[0,-0.3125,-0.1875],"type":"VEC3"},{"bufferView":41,"componentType":5126,"count":24,"max":[1,1,1],"min":[-1,-1,-1],"type":"VEC3"},{"bufferView":42,"componentType":5126,"count":24,"max":[0.265625,0.15625],"min":[0,0],"type":"VEC2"},{"bufferView":43,"componentType":5123,"count":36,"max":[23],"min":[0],"type":"SCALAR"},{"bufferView":44,"componentType":5126,"count":24,"max":[-0.0625,0.0625,0.125],"min":[-0.25,-0.0625,-0.0625],"type":"VEC3"},{"bufferView":45,"componentType":5126,"count":24,"max":[1,1,1],"min":[-1,-1,-1],"type":"VEC3"},{"bufferView":46,"componentType":5126,"count":24,"max":[0.4375,0.4296875],"min":[0.1640625,0.203125],"type":"VEC2"},{"bufferView":47,"componentType":5123,"count":36,"max":[23],"min":[0],"type":"SCALAR"},{"bufferView":48,"componentType":5126,"count":24,"max":[-0.125,0.0000625000029685907,0.6875],"min":[-0.6875,0,0],"type":"VEC3"},{"bufferView":49,"componentType":5126,"count":24,"max":[1,1,1],"min":[-1,-1,-1],"type":"VEC3"},{"bufferView":50,"componentType":5126,"count":24,"max":[0.5546875,0.578125],"min":[0,0],"type":"VEC2"},{"bufferView":51,"componentType":5123,"count":36,"max":[23],"min":[0],"type":"SCALAR"},{"bufferView":52,"componentType":5126,"count":24,"max":[0.25,0.0625,0.125],"min":[0.0625,-0.0625,-0.0625],"type":"VEC3"},{"bufferView":53,"componentType":5126,"count":24,"max":[1,1,1],"min":[-1,-1,-1],"type":"VEC3"},{"bufferView":54,"componentType":5126,"count":24,"max":[0.4375,0.4296875],"min":[0.1640625,0.203125],"type":"VEC2"},{"bufferView":55,"componentType":5123,"count":36,"max":[23],"min":[0],"type":"SCALAR"},{"bufferView":56,"componentType":5126,"count":24,"max":[0.375,0.0625625029206276,0.6875],"min":[-0.1875,0.0625,0],"type":"VEC3"},{"bufferView":57,"componentType":5126,"count":24,"max":[1,1,1],"min":[-1,-1,-1],"type":"VEC3"},{"bufferView":58,"componentType":5126,"count":24,"max":[0.5546875,0.578125],"min":[0,0],"type":"VEC2"},{"bufferView":59,"componentType":5123,"count":36,"max":[23],"min":[0],"type":"SCALAR"},{"bufferView":60,"componentType":5126,"count":39,"max":[2],"min":[0],"type":"SCALAR"},{"bufferView":61,"componentType":5126,"count":39,"max":[0.02181488461792469,0,0,1],"min":[0,0,0,0.9997619986534119],"type":"VEC4"},{"bufferView":62,"componentType":5126,"count":37,"max":[2],"min":[0],"type":"SCALAR"},{"bufferView":63,"componentType":5126,"count":37,"max":[0.0001859121985035017,0.02181488461792469,0.02181488461792469,0.9998140931129456],"min":[-0.0001859121985035017,-0.02181488461792469,-0.02181488461792469,0.9997619986534119],"type":"VEC4"},{"bufferView":64,"componentType":5126,"count":38,"max":[2],"min":[0],"type":"SCALAR"},{"bufferView":65,"componentType":5126,"count":38,"max":[-0.021074805408716202,0,0,0.9997779130935669],"min":[-0.10412465035915375,0,0,0.9945642352104187],"type":"VEC4"},{"bufferView":66,"componentType":5126,"count":37,"max":[2],"min":[0],"type":"SCALAR"},{"bufferView":67,"componentType":5126,"count":37,"max":[0.04361938685178757,0.0007435105508193374,0.04361938685178757,0.9992564916610718],"min":[-0.04361938685178757,-0.0007435105508193374,-0.04361938685178757,0.9990482330322266],"type":"VEC4"},{"bufferView":68,"componentType":5126,"count":49,"max":[3],"min":[0],"type":"SCALAR"},{"bufferView":69,"componentType":5126,"count":49,"max":[0.0007435105508193374,0.04361938685178757,0.04361938685178757,0.9992564916610718],"min":[-0.0007435105508193374,-0.04361938685178757,-0.04361938685178757,0.9990482330322266],"type":"VEC4"},{"bufferView":70,"componentType":5126,"count":49,"max":[3],"min":[0],"type":"SCALAR"},{"bufferView":71,"componentType":5126,"count":49,"max":[0.0004758892173413187,0.02181488461792469,0.021809693425893784,1],"min":[-0.00008490752225043252,-0.02181488461792469,-0.021809693425893784,0.9995241165161133],"type":"VEC4"},{"bufferView":72,"componentType":5126,"count":49,"max":[3],"min":[0],"type":"SCALAR"},{"bufferView":73,"componentType":5126,"count":49,"max":[0.011705274693667889,0.15212339162826538,0.13050241768360138,0.9931496381759644],"min":[-0.006094061769545078,-0.15212339162826538,-0.13068272173404694,0.9883615374565125],"type":"VEC4"},{"bufferView":74,"componentType":5126,"count":51,"max":[3],"min":[0],"type":"SCALAR"},{"bufferView":75,"componentType":5126,"count":51,"max":[0.10884594917297363,0.00905572809278965,0.19509032368659973,0.9944767355918884],"min":[-0.10884594917297363,-0.00905572809278965,-0.19509032368659973,0.9807852506637573],"type":"VEC4"},{"bufferView":76,"componentType":5126,"count":51,"max":[3],"min":[0],"type":"SCALAR"},{"bufferView":77,"componentType":5126,"count":51,"max":[0.10884594917297363,0.00905572809278965,0.19509032368659973,0.9944767355918884],"min":[-0.10884594917297363,-0.00905572809278965,-0.19509032368659973,0.9807852506637573],"type":"VEC4"},{"bufferView":78,"componentType":5126,"count":12,"max":[0.625],"min":[0],"type":"SCALAR"},{"bufferView":79,"componentType":5126,"count":12,"max":[0.4653812050819397,0,0,1],"min":[0,0,0,0.8851103782653809],"type":"VEC4"},{"bufferView":80,"componentType":5126,"count":12,"max":[0.625],"min":[0],"type":"SCALAR"},{"bufferView":81,"componentType":5126,"count":12,"max":[0,0,0,1],"min":[-0.8256233334541321,0,0,0.5642217397689819],"type":"VEC4"}],"materials":[{"pbrMetallicRoughness":{"metallicFactor":0,"roughnessFactor":1,"baseColorTexture":{"index":0}},"alphaMode":"MASK","alphaCutoff":0.05,"doubleSided":true}],"textures":[{"sampler":0,"source":0,"name":"texture"}],"samplers":[{"magFilter":9728,"minFilter":9728,"wrapS":33071,"wrapT":33071}],"images":[{"mimeType":"image/png","uri":"data:image/png;base64,"}],"meshes":[{"primitives":[{"mode":4,"attributes":{"POSITION":0,"NORMAL":1,"TEXCOORD_0":2},"indices":3,"material":0}]},{"primitives":[{"mode":4,"attributes":{"POSITION":4,"NORMAL":5,"TEXCOORD_0":6},"indices":7,"material":0}]},{"primitives":[{"mode":4,"attributes":{"POSITION":8,"NORMAL":9,"TEXCOORD_0":10},"indices":11,"material":0}]},{"primitives":[{"mode":4,"attributes":{"POSITION":12,"NORMAL":13,"TEXCOORD_0":14},"indices":15,"material":0}]},{"primitives":[{"mode":4,"attributes":{"POSITION":16,"NORMAL":17,"TEXCOORD_0":18},"indices":19,"material":0}]},{"primitives":[{"mode":4,"attributes":{"POSITION":20,"NORMAL":21,"TEXCOORD_0":22},"indices":23,"material":0}]},{"primitives":[{"mode":4,"attributes":{"POSITION":24,"NORMAL":25,"TEXCOORD_0":26},"indices":27,"material":0}]},{"primitives":[{"mode":4,"attributes":{"POSITION":28,"NORMAL":29,"TEXCOORD_0":30},"indices":31,"material":0}]},{"primitives":[{"mode":4,"attributes":{"POSITION":32,"NORMAL":33,"TEXCOORD_0":34},"indices":35,"material":0}]},{"primitives":[{"mode":4,"attributes":{"POSITION":36,"NORMAL":37,"TEXCOORD_0":38},"indices":39,"material":0}]},{"primitives":[{"mode":4,"attributes":{"POSITION":40,"NORMAL":41,"TEXCOORD_0":42},"indices":43,"material":0}]},{"primitives":[{"mode":4,"attributes":{"POSITION":44,"NORMAL":45,"TEXCOORD_0":46},"indices":47,"material":0}]},{"primitives":[{"mode":4,"attributes":{"POSITION":48,"NORMAL":49,"TEXCOORD_0":50},"indices":51,"material":0}]},{"primitives":[{"mode":4,"attributes":{"POSITION":52,"NORMAL":53,"TEXCOORD_0":54},"indices":55,"material":0}]},{"primitives":[{"mode":4,"attributes":{"POSITION":56,"NORMAL":57,"TEXCOORD_0":58},"indices":59,"material":0}]}],"animations":[{"name":"idle","samplers":[{"input":60,"output":61,"interpolation":"LINEAR"},{"input":62,"output":63,"interpolation":"LINEAR"},{"input":64,"output":65,"interpolation":"LINEAR"},{"input":66,"output":67,"interpolation":"LINEAR"}],"channels":[{"sampler":0,"target":{"node":10,"path":"rotation"}},{"sampler":1,"target":{"node":13,"path":"rotation"}},{"sampler":2,"target":{"node":9,"path":"rotation"}},{"sampler":3,"target":{"node":16,"path":"rotation"}}]},{"name":"swimeing","samplers":[{"input":68,"output":69,"interpolation":"LINEAR"},{"input":70,"output":71,"interpolation":"LINEAR"},{"input":72,"output":73,"interpolation":"LINEAR"},{"input":74,"output":75,"interpolation":"LINEAR"},{"input":76,"output":77,"interpolation":"LINEAR"}],"channels":[{"sampler":0,"target":{"node":10,"path":"rotation"}},{"sampler":1,"target":{"node":20,"path":"rotation"}},{"sampler":2,"target":{"node":13,"path":"rotation"}},{"sampler":3,"target":{"node":16,"path":"rotation"}},{"sampler":4,"target":{"node":19,"path":"rotation"}}]},{"name":"eating","samplers":[{"input":78,"output":79,"interpolation":"LINEAR"},{"input":80,"output":81,"interpolation":"LINEAR"}],"channels":[{"sampler":0,"target":{"node":10,"path":"rotation"}},{"sampler":1,"target":{"node":9,"path":"rotation"}}]}]}